<svg xmlns="http://www.w3.org/2000/svg" xmlns:xlink="http://www.w3.org/1999/xlink" id="Capa_1" x="0px" y="0px" viewBox="0 0 1919 330.53" style="enable-background:new 0 0 1919 330.53;" xml:space="preserve"><style type="text/css">	.st0{fill:#AD332A;}	.st1{fill:#21242D;}	.st2{fill:url(#SVGID_1_);}	.st3{fill:url(#SVGID_00000051346645585201082270000000033973128245293195_);}</style><g id="Logo_original">	<g>		<g>			<path class="st0" d="M838.03,62.07l26.26,0.68c-1.73,13.59-6.44,24.1-14.12,31.51c-7.68,7.41-17.7,11.12-30.06,11.12    c-12.56,0-23.08-4.21-31.54-12.64c-8.47-8.42-12.7-18.88-12.7-31.36c0-12.56,4.31-23.13,12.95-31.7    c8.63-8.57,19.27-12.85,31.92-12.85c12.44,0,22.82,4.2,31.14,12.61c5.77,5.81,9.85,13.9,12.23,24.28l-26.88,1.79    c-3.01-9.23-8.71-13.84-17.12-13.84c-5.36,0-9.77,1.85-13.25,5.56c-3.48,3.71-5.22,8.42-5.22,14.15c0,5.52,1.71,10.08,5.13,13.69    c3.42,3.6,7.74,5.41,12.98,5.41c5.31,0,9.55-1.59,12.7-4.76C835.59,72.55,837.45,68,838.03,62.07z"></path>			<path class="st0" d="M916.13,16.83c11.95,0,22.19,4.35,30.74,13.04c8.55,8.69,12.82,19.09,12.82,31.2    c0,12.32-4.3,22.78-12.91,31.39c-8.61,8.61-19.07,12.91-31.39,12.91c-12.23,0-22.68-4.33-31.33-12.98    c-8.65-8.65-12.98-19.09-12.98-31.33c0-12.36,4.36-22.82,13.07-31.39S903.53,16.83,916.13,16.83z M915.39,41.67    c-5.15,0-9.54,1.89-13.16,5.68c-3.63,3.79-5.44,8.36-5.44,13.72s1.82,9.93,5.47,13.72c3.65,3.79,8.02,5.68,13.13,5.68    c5.19,0,9.59-1.88,13.19-5.65c3.6-3.77,5.41-8.35,5.41-13.75s-1.8-9.98-5.41-13.75C924.98,43.56,920.58,41.67,915.39,41.67z"></path>			<path class="st0" d="M969.77,103.28V48.53c0-9.6,2.87-17.28,8.62-23.05c5.75-5.77,13.4-8.65,22.96-8.65    c9.52,0,16.8,2.8,21.84,8.4c5.05,5.6,7.57,13.66,7.57,24.16v53.88h-25.09V49.4c0-5.15-1.83-7.72-5.5-7.72    c-3.54,0-5.31,2.57-5.31,7.72v53.88H969.77z"></path>			<path class="st0" d="M1044.29,103.28V48.53c0-9.6,2.87-17.28,8.62-23.05s13.4-8.65,22.96-8.65c9.52,0,16.8,2.8,21.84,8.4    c5.05,5.6,7.57,13.66,7.57,24.16v53.88h-25.09V49.4c0-5.15-1.83-7.72-5.5-7.72c-3.54,0-5.31,2.57-5.31,7.72v53.88H1044.29z"></path>			<path class="st0" d="M1165.52,51.75v18.78h-16.37c-2.22,0-3.8,0.33-4.73,0.99c-0.93,0.66-1.39,1.77-1.39,3.34    c0,1.77,0.47,2.94,1.42,3.49c0.95,0.56,2.88,0.83,5.81,0.83h16.87v24.1h-19.71c-9.27,0-16.35-2.21-21.26-6.64    c-4.9-4.43-7.35-10.82-7.35-19.19V44.39c0-8.07,2.32-14.34,6.95-18.78c4.63-4.45,11.15-6.67,19.56-6.67h21.81v24.22h-16    c-4.33,0-6.49,1.4-6.49,4.2c0,1.65,0.51,2.79,1.54,3.43c1.03,0.64,2.86,0.96,5.5,0.96H1165.52z"></path>			<path class="st0" d="M1238.56,62.07l26.26,0.68c-1.73,13.59-6.44,24.1-14.12,31.51c-7.68,7.41-17.7,11.12-30.06,11.12    c-12.56,0-23.08-4.21-31.54-12.64s-12.7-18.88-12.7-31.36c0-12.56,4.31-23.13,12.95-31.7c8.63-8.57,19.27-12.85,31.92-12.85    c12.44,0,22.82,4.2,31.14,12.61c5.77,5.81,9.85,13.9,12.23,24.28l-26.88,1.79c-3.01-9.23-8.71-13.84-17.12-13.84    c-5.36,0-9.77,1.85-13.25,5.56c-3.48,3.71-5.22,8.42-5.22,14.15c0,5.52,1.71,10.08,5.13,13.69c3.42,3.6,7.74,5.41,12.98,5.41    c5.31,0,9.55-1.59,12.7-4.76C1236.12,72.55,1237.98,68,1238.56,62.07z"></path>			<path class="st0" d="M1313.39,43.16v60.12h-25.09V43.16h-19.22V18.94h63.46v24.22H1313.39z"></path>			<path class="st0" d="M1373.45,18.94h30.65c18.17,0,27.25,7.15,27.25,21.44c0,7.08-3.11,12.98-9.33,17.67    c9.02,3.91,13.53,10.9,13.53,20.95c0,7.7-2.66,13.84-7.97,18.41c-2.6,2.18-5.38,3.71-8.34,4.57c-2.97,0.87-6.96,1.3-11.99,1.3    h-4.76V81.59h4.26c2.51,0,4.28-0.32,5.31-0.96c1.03-0.64,1.54-1.76,1.54-3.37c0-2.72-2.1-4.08-6.3-4.08h-4.82V50.7    c4.61,0,6.92-1.59,6.92-4.76c0-2.93-2.08-4.39-6.24-4.39h-4.63v61.73h-25.09V18.94z"></path>			<path class="st0" d="M1505.12,18.94l-23.85,37.51v46.84h-25.09V56.44l-24.04-37.51h25.46l10.88,17.36l11.68-17.36H1505.12z"></path>		</g>		<g>			<path class="st1" d="M868.92,268.18h17.3l0.12,6.43c0,25.29-16.56,37.94-49.68,37.94c-21.26,0-35.3-4-42.14-11.99    c-6.84-7.99-10.26-24.47-10.26-49.43c0-23.4,3.48-39.28,10.44-47.64c6.96-8.36,20.21-12.54,39.73-12.54    c19.2,0,32.3,2.82,39.3,8.47c7,5.64,10.5,16.25,10.5,31.82h-17.3v-3.09c0-9.15-2.27-15.24-6.8-18.29    c-4.53-3.05-13.55-4.57-27.06-4.57c-13.02,0-21.38,2.88-25.09,8.65c-3.71,5.77-5.56,18.7-5.56,38.8    c0,19.61,2.12,32.09,6.36,37.45c4.24,5.36,14.15,8.03,29.72,8.03c13.18,0,21.54-1.75,25.09-5.25    C867.15,289.46,868.92,281.2,868.92,268.18z"></path>			<path class="st1" d="M927.75,142.13v19.4h-17.3v-19.4H927.75z M927.75,192.67v118.14h-17.3V192.67H927.75z"></path>			<path class="st1" d="M959.76,192.67h17.3l-1.73,13.59l0.37,0.37c6.84-11.12,18.12-16.68,33.86-16.68    c21.75,0,32.63,11.21,32.63,33.61l-0.12,8.16h-17.05l0.37-2.97c0.25-3.13,0.37-5.23,0.37-6.3c0-12.11-6.59-18.17-19.77-18.17    c-19.28,0-28.92,11.91-28.92,35.72v70.81h-17.3V192.67z"></path>			<path class="st1" d="M1140.06,268.18h17.3l0.12,6.43c0,25.29-16.56,37.94-49.68,37.94c-21.26,0-35.3-4-42.14-11.99    c-6.84-7.99-10.26-24.47-10.26-49.43c0-23.4,3.48-39.28,10.44-47.64c6.96-8.36,20.21-12.54,39.73-12.54    c19.2,0,32.3,2.82,39.3,8.47c7,5.64,10.5,16.25,10.5,31.82h-17.3v-3.09c0-9.15-2.27-15.24-6.8-18.29    c-4.53-3.05-13.55-4.57-27.06-4.57c-13.02,0-21.38,2.88-25.09,8.65c-3.71,5.77-5.56,18.7-5.56,38.8    c0,19.61,2.12,32.09,6.36,37.45c4.24,5.36,14.15,8.03,29.72,8.03c13.18,0,21.54-1.75,25.09-5.25    C1138.29,289.46,1140.06,281.2,1140.06,268.18z"></path>			<path class="st1" d="M1277.98,192.67v118.14h-17.3l1.24-15.45l-0.37-0.37c-6.01,11.7-18.87,17.55-38.56,17.55    c-27.6,0-41.4-13.76-41.4-41.28v-78.6h17.3v78.6c0,10.71,1.77,17.88,5.31,21.5c3.54,3.63,10.5,5.44,20.89,5.44    c13.59,0,22.92-2.7,27.99-8.09c5.07-5.4,7.6-15.3,7.6-29.72v-67.72H1277.98z"></path>			<path class="st1" d="M1327.29,142.13v168.69h-17.3V142.13H1327.29z"></path>			<path class="st1" d="M1375.73,225.79h-17.18c0-13.76,3.11-23.01,9.33-27.74c6.22-4.74,18.39-7.11,36.52-7.11    c19.69,0,33,2.9,39.92,8.71c6.92,5.81,10.38,16.87,10.38,33.18v77.98h-17.3l1.36-12.73l-0.37-0.12    c-6.59,9.72-19.98,14.58-40.16,14.58c-29.83,0-44.74-11.99-44.74-35.96c0-14.25,3.34-24.1,10.01-29.54    c6.67-5.44,18.74-8.16,36.21-8.16c20.76,0,33.2,4.08,37.32,12.23l0.37-0.12v-14.34c0-13.51-1.85-22.26-5.56-26.26    c-3.71-4-11.82-5.99-24.35-5.99c-21.26,0-31.88,5.97-31.88,17.92C1375.61,222.91,1375.65,224.06,1375.73,225.79z M1403.54,252.36    c-13.27,0-21.9,1.4-25.89,4.2c-4,2.8-5.99,8.82-5.99,18.04c0,9.56,1.98,15.88,5.93,18.97c3.95,3.09,11.99,4.63,24.1,4.63    c24.39,0,36.58-7.41,36.58-22.24c0-9.31-2.37-15.57-7.11-18.78C1426.42,253.97,1417.22,252.36,1403.54,252.36z"></path>			<path class="st1" d="M1488.44,192.67h17.3l-1.73,13.59l0.37,0.37c6.84-11.12,18.12-16.68,33.86-16.68    c21.75,0,32.63,11.21,32.63,33.61l-0.12,8.16h-17.05l0.37-2.97c0.25-3.13,0.37-5.23,0.37-6.3c0-12.11-6.59-18.17-19.77-18.17    c-19.28,0-28.92,11.91-28.92,35.72v70.81h-17.3V192.67z"></path>			<path class="st1" d="M1572.72,241.37h52.15v16.07h-52.52L1572.72,241.37z"></path>			<path class="st1" d="M1657.38,142.13v168.69h-17.3V142.13H1657.38z"></path>			<path class="st1" d="M1705.82,225.79h-17.18c0-13.76,3.11-23.01,9.33-27.74c6.22-4.74,18.39-7.11,36.52-7.11    c19.69,0,33,2.9,39.92,8.71c6.92,5.81,10.38,16.87,10.38,33.18v77.98h-17.3l1.36-12.73l-0.37-0.12    c-6.59,9.72-19.98,14.58-40.16,14.58c-29.83,0-44.74-11.99-44.74-35.96c0-14.25,3.34-24.1,10.01-29.54    c6.67-5.44,18.74-8.16,36.21-8.16c20.76,0,33.2,4.08,37.32,12.23l0.37-0.12v-14.34c0-13.51-1.85-22.26-5.56-26.26    c-3.71-4-11.82-5.99-24.35-5.99c-21.26,0-31.88,5.97-31.88,17.92C1705.7,222.91,1705.74,224.06,1705.82,225.79z M1733.63,252.36    c-13.27,0-21.9,1.4-25.89,4.2c-4,2.8-5.99,8.82-5.99,18.04c0,9.56,1.98,15.88,5.93,18.97c3.95,3.09,11.99,4.63,24.1,4.63    c24.39,0,36.58-7.41,36.58-22.24c0-9.31-2.37-15.57-7.11-18.78C1756.51,253.97,1747.3,252.36,1733.63,252.36z"></path>			<path class="st1" d="M1816.8,310.82V142.13h17.3v65.62l0.37,0.37c3.95-11.45,16.89-17.18,38.8-17.18    c17.3,0,29.25,4.49,35.84,13.47c6.59,8.98,9.89,25.25,9.89,48.81c0,22.33-3.48,37.8-10.44,46.41    c-6.96,8.61-19.55,12.91-37.75,12.91c-18.54,0-30.9-5.48-37.07-16.44l-0.49,0.12l0.87,14.58H1816.8z M1868.83,205.28    c-13.59,0-22.7,2.9-27.31,8.71c-4.61,5.81-6.92,17.36-6.92,34.66c0,21.34,2.08,34.93,6.24,40.78c4.16,5.85,13.74,8.77,28.73,8.77    c12.69,0,21.07-2.99,25.15-8.96c4.08-5.97,6.12-18.23,6.12-36.77c0-19.53-2.02-32.27-6.06-38.25    C1890.74,208.27,1882.09,205.28,1868.83,205.28z"></path>		</g>	</g>	<g>		<g>			<linearGradient id="SVGID_1_" gradientUnits="userSpaceOnUse" x1="206.6949" y1="-70.7541" x2="528.037" y2="288.3929">				<stop offset="1.385225e-07" style="stop-color:#E85854"></stop>				<stop offset="0.3447" style="stop-color:#EC3B27"></stop>				<stop offset="0.7067" style="stop-color:#D3382C"></stop>				<stop offset="1" style="stop-color:#AD332A"></stop>			</linearGradient>			<path class="st2" d="M338.34,266.12c3.13-4.89,7.64-7.77,13.51-8.62c5.86-0.84,10.81,0.58,14.86,4.27    c13.46,10.5,28.17,17.88,44.19,22.15c15.99,4.27,31.79,5.48,47.38,3.61c15.59-1.86,30.54-6.63,44.84-14.3    c14.28-7.67,26.66-18.23,37.17-31.69c10.47-13.46,17.76-27.94,21.87-43.48c4.09-15.52,5.08-31.07,3-46.63    c-2.09-15.57-6.97-30.5-14.63-44.8c-7.68-14.29-18.24-26.68-31.7-37.17c-13.44-10.49-27.94-17.77-43.46-21.87    c-15.53-4.09-31.08-5.09-46.64-3.01c-15.58,2.09-30.59,7.09-45.09,15.01c-14.52,7.93-27.01,18.61-37.48,32.07L245.52,212.02    c-3.19,4.45-7.84,7.11-13.92,7.98c-6.09,0.86-11.16-0.56-15.22-4.25c-4.93-3.61-7.72-8.34-8.34-14.23    c-0.62-5.88,0.67-11.05,3.87-15.5L313.22,65.6c14.14-17.95,30.72-32.26,49.73-42.95C381.95,11.96,401.99,5.42,423,2.97    c21.03-2.42,42.22-0.87,63.63,4.66c21.39,5.55,41.5,15.11,60.32,28.69c17,13.78,30.71,30.19,41.18,49.22    c10.45,19.04,16.9,39.07,19.33,60.09c2.43,21.02,0.99,42.11-4.36,63.26c-5.32,21.15-15.08,40.7-29.18,58.65    c-14.15,17.96-30.62,32.15-49.43,42.58c-18.81,10.44-38.73,16.86-59.75,19.29c-21.01,2.44-42.11,0.87-63.3-4.7    c-21.16-5.56-40.97-15.6-59.43-30.15c-4.96-3.6-7.73-8.21-8.32-13.89C333.1,275.02,334.65,270.18,338.34,266.12z"></path>							<linearGradient id="SVGID_00000031924215641784913940000013345804471116642691_" gradientUnits="userSpaceOnUse" x1="80.5438" y1="42.1179" x2="401.8859" y2="401.265">				<stop offset="1.385225e-07" style="stop-color:#E85854"></stop>				<stop offset="0.3447" style="stop-color:#EC3B27"></stop>				<stop offset="0.7067" style="stop-color:#D3382C"></stop>				<stop offset="1" style="stop-color:#AD332A"></stop>			</linearGradient>			<path style="fill:url(#SVGID_00000031924215641784913940000013345804471116642691_);" d="M270.25,64.41    c-3.14,4.89-7.64,7.77-13.52,8.62c-5.84,0.83-10.8-0.59-14.85-4.29c-13.45-10.49-28.17-17.87-44.19-22.14    c-15.99-4.28-31.79-5.48-47.38-3.61c-15.59,1.86-30.54,6.62-44.84,14.3C91.18,64.97,78.81,75.53,68.3,88.99    c-10.49,13.45-17.77,27.93-21.87,43.48c-4.09,15.52-5.08,31.07-3,46.63c2.09,15.56,6.97,30.5,14.63,44.8    c7.68,14.29,18.24,26.67,31.69,37.16c13.45,10.5,27.95,17.77,43.47,21.88c15.52,4.09,31.07,5.08,46.63,3.01    c15.58-2.09,30.6-7.09,45.1-15.02c14.52-7.93,27-18.61,37.48-32.07l100.65-120.35c3.18-4.45,7.83-7.11,13.9-7.97    c6.11-0.87,11.17,0.54,15.23,4.24c4.93,3.61,7.73,8.34,8.34,14.22c0.62,5.88-0.68,11.05-3.88,15.5l-101.3,120.43    c-14.14,17.95-30.72,32.26-49.73,42.95c-19.01,10.68-39.03,17.23-60.05,19.67c-21.03,2.42-42.23,0.86-63.64-4.66    c-21.39-5.55-41.49-15.11-60.32-28.69c-17-13.78-30.71-30.19-41.19-49.22c-10.45-19.04-16.89-39.07-19.32-60.1    c-2.43-21.01-0.99-42.1,4.35-63.25C10.82,100.5,20.57,80.94,34.69,63C48.84,45.04,65.3,30.85,84.12,20.41    c18.81-10.44,38.72-16.87,59.75-19.3c21.02-2.44,42.11-0.86,63.29,4.7c21.16,5.56,40.98,15.61,59.44,30.15    c4.95,3.6,7.72,8.22,8.31,13.89C275.51,55.51,273.96,60.35,270.25,64.41z"></path>		</g>	</g></g></svg>